<mxfile host="app.diagrams.net" modified="2023-12-26T13:24:44.507Z" agent="Mozilla/5.0 (Windows NT 10.0; Win64; x64) AppleWebKit/537.36 (KHTML, like Gecko) Chrome/117.0.0.0 Safari/537.36 Edg/117.0.2045.31" version="22.1.11" etag="CnW9At4nxf0J1KABRJvh" type="github">
  <diagram name="Page-1" id="70-RQFOv_sxfQWD2X_kT">
    <mxGraphModel>
      <root>
        <mxCell id="0" />
        <mxCell id="1" parent="0" />
      </root>
    </mxGraphModel>
  </diagram>
</mxfile>
